<svg id="Layer_1" data-name="Layer 1" xmlns="http://www.w3.org/2000/svg" width="6.15cm" height="6.15cm" viewBox="0 0 174.28 174.25"><path d="M86.67,173.25a86.63,86.63,0,1,1,86.61-86.51A86.68,86.68,0,0,1,86.67,173.25Zm-9.9-77.8L75.16,94C69.58,88.91,64,83.74,58.4,78.67a8.89,8.89,0,0,0-12.57.12q-.18.18-.33.36a9,9,0,0,0,.7,12.71l.07.06q12.09,11.22,24.32,22.33a8.8,8.8,0,0,0,12.45.1l.25-.24Q105.22,93.2,127.08,72.2a9,9,0,0,0,.46-13.05c-3.54-3.64-9.06-3.58-12.94.11Q106.89,66.58,99.23,74Z" transform="translate(0.5 0.5)" fill="#a3f406" stroke="#fff" stroke-miterlimit="10"/></svg>