<svg id="Layer_1" data-name="Layer 1" xmlns="http://www.w3.org/2000/svg" width="61.13mm" height="61.12mm" viewBox="0 0 173.29 173.26"><path d="M-674.62,453.85a86.69,86.69,0,0,1-86.67-86.65,86.69,86.69,0,0,1,86.71-86.61A86.68,86.68,0,0,1-588,367.33,86.68,86.68,0,0,1-674.62,453.85Zm-9.9-77.81-1.61-1.42c-5.58-5.12-11.12-10.29-16.76-15.36a8.89,8.89,0,0,0-12.9.48,9,9,0,0,0,.77,12.77q12.1,11.22,24.32,22.33A8.81,8.81,0,0,0-678,394.7q21.94-20.91,43.8-41.91c3.9-3.75,4-9.41.46-13.05s-9.06-3.58-12.94.11q-7.71,7.33-15.38,14.72Z" transform="translate(761.29 -280.59)" fill="#fff"/></svg>