<svg id="Layer_1" data-name="Layer 1" xmlns="http://www.w3.org/2000/svg" width="2.5cm" height="0.88cm" viewBox="0 0 70.82 24.9"><g opacity="0.04"><path d="M-93.7,11.8v-.05A6.9,6.9,0,0,1-93.13,9a7.76,7.76,0,0,1,1.58-2.36,7.18,7.18,0,0,1,3-1.85A7.52,7.52,0,0,1-85,4.5a7.8,7.8,0,0,1,2.61,1,6.92,6.92,0,0,1,2.08,1.88l.22.29.2.29a7.28,7.28,0,0,1,1.09,3.57,7.41,7.41,0,0,1-.77,3.67,6.91,6.91,0,0,1-1.09,1.59A7.38,7.38,0,0,1-82.15,18a8.57,8.57,0,0,1-1.72.84,6.91,6.91,0,0,1-1.9.39,1,1,0,0,1-.24,0h-.27a1.33,1.33,0,0,1-1-.42,1.4,1.4,0,0,1-.41-1,1.36,1.36,0,0,1,.41-1,1.36,1.36,0,0,1,1-.41h.1a4.8,4.8,0,0,0,1.68-.37,4.36,4.36,0,0,0,1.3-.83,4.79,4.79,0,0,0,1-1.2c-.07.12-.13.24-.19.36l-.21.36c.08-.14.16-.28.23-.42a4.53,4.53,0,0,0,.23-.44,3.25,3.25,0,0,0,.26-.58H-92.22a1.49,1.49,0,0,1-1-.44,1.46,1.46,0,0,1-.45-1Zm8.12-4.5a4.42,4.42,0,0,0-1.85.11,4.74,4.74,0,0,0-1.68.84A4.49,4.49,0,0,0-90.3,9.67a4.47,4.47,0,0,0-.32.74h8.69A4.92,4.92,0,0,0-82.67,9,4.78,4.78,0,0,0-83.83,8,4.6,4.6,0,0,0-85.58,7.3Z" transform="translate(97.87 0.46)" fill="#fff"/><path d="M-66.73,16.83a1.4,1.4,0,0,1,.41,1,1.34,1.34,0,0,1-.41,1,1.39,1.39,0,0,1-1,.42h-1.71a7.17,7.17,0,0,1-2.88-.59,7.55,7.55,0,0,1-2.36-1.59,7.72,7.72,0,0,1-1.61-2.36,7.23,7.23,0,0,1-.59-2.9A7.17,7.17,0,0,1-76.31,9,7.61,7.61,0,0,1-74.7,6.61,7.55,7.55,0,0,1-72.34,5a7,7,0,0,1,2.88-.59h1.71a1.42,1.42,0,0,1,1,.41,1.38,1.38,0,0,1,.41,1,1.42,1.42,0,0,1-.41,1,1.4,1.4,0,0,1-1,.43h-1.71a4.37,4.37,0,0,0-1.77.35,4.93,4.93,0,0,0-1.44,1,4.37,4.37,0,0,0-1,1.45A4.36,4.36,0,0,0-74,11.85a4.46,4.46,0,0,0,.36,1.78,4.33,4.33,0,0,0,1,1.44,4.74,4.74,0,0,0,1.44,1,4.38,4.38,0,0,0,1.77.36h1.71A1.36,1.36,0,0,1-66.73,16.83Z" transform="translate(97.87 0.46)" fill="#fff"/><circle cx="7.55" cy="17.45" r="1.52" fill="#fff"/></g><text transform="translate(34.22 15.93)" opacity="0.04" font-size="19.93" fill="#fff" font-family="CreattionDemo, Creattion Demo">connect</text><g opacity="0.04"><path d="M-60.5,8.14l-.15.69h-3.09l1-4.4h3.08l-.16.7h-2.34l-.26,1.13h2.24l-.17.69h-2.23l-.28,1.19Z" transform="translate(97.87 0.46)" fill="#fff"/><path d="M-58.46,7.93-57,5.62h.81L-58.3,8.83H-59l-.57-3.21h.75Z" transform="translate(97.87 0.46)" fill="#fff"/><path d="M-53.23,7.44h-2.42a.31.31,0,0,0,0,.1.72.72,0,0,0,.21.53.74.74,0,0,0,.57.2.93.93,0,0,0,.46-.12.75.75,0,0,0,.33-.33h.75A1.63,1.63,0,0,1-54,8.6a1.71,1.71,0,0,1-1,.31,1.39,1.39,0,0,1-1-.41,1.48,1.48,0,0,1-.39-1.07,2,2,0,0,1,.5-1.32,1.63,1.63,0,0,1,1.29-.57,1.39,1.39,0,0,1,1,.4,1.38,1.38,0,0,1,.4,1A2.05,2.05,0,0,1-53.23,7.44Zm-2.32-.54h1.67v0a.72.72,0,0,0-.2-.52.8.8,0,0,0-.57-.19.86.86,0,0,0-.57.2A.89.89,0,0,0-55.55,6.9Z" transform="translate(97.87 0.46)" fill="#fff"/><path d="M-51.47,5.62l-.09.42a1.21,1.21,0,0,1,1-.5,1,1,0,0,1,.73.27,1,1,0,0,1,.27.74,2,2,0,0,1-.08.48L-50,8.83h-.72l.44-1.91a1.76,1.76,0,0,0,0-.27.47.47,0,0,0-.14-.35.6.6,0,0,0-.42-.13.89.89,0,0,0-.92.79l-.41,1.87h-.72l.71-3.21Z" transform="translate(97.87 0.46)" fill="#fff"/><path d="M-47.56,8.18l-.15.64a1.35,1.35,0,0,1-.34,0,.85.85,0,0,1-.57-.18.69.69,0,0,1-.21-.55,1.4,1.4,0,0,1,0-.37l.35-1.54h-.49l.14-.59h.49l.19-.84h.73l-.19.84h.6l-.14.59h-.6l-.36,1.55a1,1,0,0,0,0,.22c0,.15.09.23.27.23Z" transform="translate(97.87 0.46)" fill="#fff"/><path d="M-46,8.91a1.25,1.25,0,0,1-.92-.29,1,1,0,0,1-.28-.74V7.8h.68a.22.22,0,0,0,0,.08c0,.29.19.44.57.44s.62-.13.62-.39a.29.29,0,0,0-.14-.26,1.29,1.29,0,0,0-.33-.18l-.41-.17a.73.73,0,0,1-.34-.27.83.83,0,0,1-.14-.48.94.94,0,0,1,.33-.74,1.38,1.38,0,0,1,.93-.29,1.21,1.21,0,0,1,.85.28.91.91,0,0,1,.29.69v.1H-45s0-.05,0-.08a.34.34,0,0,0-.14-.28.54.54,0,0,0-.37-.11.63.63,0,0,0-.39.1.33.33,0,0,0-.14.27.27.27,0,0,0,.15.23,2.16,2.16,0,0,0,.34.16l.4.17a.71.71,0,0,1,.34.28.89.89,0,0,1,.14.5.88.88,0,0,1-.4.79A1.65,1.65,0,0,1-46,8.91Z" transform="translate(97.87 0.46)" fill="#fff"/></g><path d="M-78.54,12.57v0a3.74,3.74,0,0,1,.29-1.44,4.19,4.19,0,0,1,.83-1.22,3.59,3.59,0,0,1,1.54-1A4.07,4.07,0,0,1-74,8.77a4.23,4.23,0,0,1,1.36.51,3.88,3.88,0,0,1,1.08,1l.11.15a1.3,1.3,0,0,1,.1.15,3.83,3.83,0,0,1,.57,1.86,3.79,3.79,0,0,1-.4,1.9,3.9,3.9,0,0,1-.56.83,4.54,4.54,0,0,1-.75.64,4.69,4.69,0,0,1-.9.44,3.71,3.71,0,0,1-1,.2h-.27a.7.7,0,0,1-.52-.21.74.74,0,0,1-.21-.53.7.7,0,0,1,.21-.52.7.7,0,0,1,.52-.21h0a2.52,2.52,0,0,0,.88-.2,2.08,2.08,0,0,0,.67-.43,2.44,2.44,0,0,0,.49-.62l-.09.18-.11.19.12-.22.12-.22c0-.11.1-.21.13-.3h-5.34a.78.78,0,0,1-.53-.23.77.77,0,0,1-.24-.53Zm4.21-2.34a2.22,2.22,0,0,0-1,.06,2.37,2.37,0,0,0-.87.43,2.28,2.28,0,0,0-.61.74,2.1,2.1,0,0,0-.17.39h4.51a2.76,2.76,0,0,0-.38-.72,2.51,2.51,0,0,0-.61-.56A2.38,2.38,0,0,0-74.33,10.23Z" transform="translate(97.87 0.46)" fill="#fff"/><path d="M-64.54,15.18a.73.73,0,0,1,.22.53.75.75,0,0,1-.22.53.72.72,0,0,1-.53.21H-66a3.78,3.78,0,0,1-1.49-.3,4,4,0,0,1-1.23-.83,3.94,3.94,0,0,1-.83-1.22,3.64,3.64,0,0,1-.31-1.51,3.55,3.55,0,0,1,.31-1.49,3.87,3.87,0,0,1,.83-1.23A4,4,0,0,1-67.45,9,3.78,3.78,0,0,1-66,8.74h.89a.72.72,0,0,1,.53.21.75.75,0,0,1,.22.53.77.77,0,0,1-.22.54.73.73,0,0,1-.53.22H-66a2.31,2.31,0,0,0-.91.18,2.49,2.49,0,0,0-.75.51,2.17,2.17,0,0,0-.51.75,2.18,2.18,0,0,0-.19.91,2.17,2.17,0,0,0,.19.92,2.17,2.17,0,0,0,.51.75,2.32,2.32,0,0,0,.75.51A2.31,2.31,0,0,0-66,15h.89A.7.7,0,0,1-64.54,15.18Z" transform="translate(97.87 0.46)" fill="#fff"/><circle cx="21.08" cy="15.72" r="0.79" fill="#a6ea00"/><path d="M-62.64,13.85a1.65,1.65,0,0,0-.25.56c0,.09.08.11.23.07a3,3,0,0,0,.55-.21,4.16,4.16,0,0,0,.56-.29l.29-.17s.09-.05.12,0a0,0,0,0,1,0,.05.15.15,0,0,1,0,.08,4.63,4.63,0,0,1-.51.33,5.17,5.17,0,0,1-.75.36.85.85,0,0,1-.61.06c-.14-.06-.16-.24-.05-.56a2.85,2.85,0,0,1,.47-.77,1.3,1.3,0,0,1,.59-.49.26.26,0,0,1,.2,0,.27.27,0,0,1,.1.16.27.27,0,0,1-.1.18.34.34,0,0,1-.15.07.11.11,0,0,1-.12,0v0a0,0,0,0,0,0,0s0,0,0,0l-.09.08A2.81,2.81,0,0,0-62.64,13.85Z" transform="translate(97.87 0.46)" fill="#fff"/><path d="M-60.39,14.56a.7.7,0,0,1-.67.26q-.3-.09-.3-.54a2.17,2.17,0,0,1,.63-1.17,1.13,1.13,0,0,1,.38-.3.18.18,0,0,1,.18,0s0,.09,0,.19-.13.12-.18.13l-.1,0h0l0,0a3,3,0,0,0-.59.92c-.07.23-.06.39,0,.47a.27.27,0,0,0,.35,0,.83.83,0,0,0,.23-.23,1.52,1.52,0,0,0,.21-.33l0,0,0,0s0,0,0,0a.7.7,0,0,1-.15-.24.38.38,0,0,1,0-.27.16.16,0,0,1,.15-.07.37.37,0,0,1,.22.12.49.49,0,0,1,.1.32.25.25,0,0,0,.11.21.3.3,0,0,0,.21,0,.38.38,0,0,0,.19-.09s.08,0,.1,0a.1.1,0,0,1,0,.09.37.37,0,0,1-.16.12.62.62,0,0,1-.29.06l-.16-.06a.09.09,0,0,0-.06,0s0,0-.06.07l-.13.21A1.81,1.81,0,0,1-60.39,14.56Z" transform="translate(97.87 0.46)" fill="#fff"/><path d="M-59.84,14.5a5.9,5.9,0,0,1,.31-.6l.4-.67.18-.3a.16.16,0,0,1,0-.09.11.11,0,0,1,0-.08.66.66,0,0,1,.19-.16h.09a.17.17,0,0,1,.1.1h0a.16.16,0,0,1,0,.09l-.41.69c-.16.26-.29.49-.41.7a4.5,4.5,0,0,1,.39-.33,6.42,6.42,0,0,1,.54-.41.87.87,0,0,1,.39-.2c.12,0,.19.05.2.14a.81.81,0,0,1,0,.31.88.88,0,0,0,0,.23.09.09,0,0,0,.1.09.75.75,0,0,0,.32-.15s.08,0,.1,0,0,0,0,.07a.13.13,0,0,1-.06.07c-.3.2-.5.23-.6.11a.75.75,0,0,1-.08-.61.89.89,0,0,0-.32.18l-.46.39c-.14.13-.28.25-.41.35a2.19,2.19,0,0,1-.33.24.19.19,0,0,1-.18,0A.14.14,0,0,1-59.84,14.5Z" transform="translate(97.87 0.46)" fill="#fff"/><path d="M-57.84,14.5a5.9,5.9,0,0,1,.31-.6l.4-.67.18-.3a.16.16,0,0,1,0-.09.11.11,0,0,1,0-.08.66.66,0,0,1,.19-.16h.09a.17.17,0,0,1,.1.1h0a.16.16,0,0,1,0,.09l-.41.69c-.16.26-.29.49-.41.7a4.5,4.5,0,0,1,.39-.33,6.42,6.42,0,0,1,.54-.41.87.87,0,0,1,.39-.2c.12,0,.19.05.21.14a1.6,1.6,0,0,1,0,.31.92.92,0,0,0,0,.23.09.09,0,0,0,.1.09.7.7,0,0,0,.32-.15s.08,0,.1,0,0,0,0,.07a.13.13,0,0,1-.06.07c-.3.2-.5.23-.6.11a.79.79,0,0,1-.08-.61.89.89,0,0,0-.32.18q-.21.16-.45.39l-.42.35a2.19,2.19,0,0,1-.33.24.17.17,0,0,1-.17,0A.13.13,0,0,1-57.84,14.5Z" transform="translate(97.87 0.46)" fill="#fff"/><path d="M-54.18,12.84c.19,0,.26.12.23.24a.84.84,0,0,1-.3.38,1.7,1.7,0,0,1-.49.3c-.17.06-.29.06-.37,0a2.43,2.43,0,0,0-.19.27.81.81,0,0,0-.11.29c0,.13.08.18.26.16a2.27,2.27,0,0,0,.62-.16c.25-.1.47-.19.67-.29l.39-.21s.07,0,.11,0,0,0,0,.05,0,.08-.13.14a5.84,5.84,0,0,1-.51.3,4.86,4.86,0,0,1-.77.34,1.49,1.49,0,0,1-.68.1c-.19,0-.28-.17-.28-.42a1.27,1.27,0,0,1,.29-.59,3.05,3.05,0,0,1,.59-.6A1,1,0,0,1-54.18,12.84Zm-.1.28-.16.08-.23.16a1.4,1.4,0,0,0-.22.16.53.53,0,0,0-.11.11s0,0,.1,0a2.59,2.59,0,0,0,.35-.19,2.11,2.11,0,0,0,.33-.26s0-.06,0-.07S-54.22,13.1-54.28,13.12Z" transform="translate(97.87 0.46)" fill="#fff"/><path d="M-53.22,13.85a1.8,1.8,0,0,0-.24.56c0,.09.07.11.23.07a3.25,3.25,0,0,0,.54-.21,5,5,0,0,0,.57-.29l.28-.17c.05,0,.09-.05.12,0a0,0,0,0,1,0,.05.15.15,0,0,1,0,.08,3.81,3.81,0,0,1-.51.33,5.17,5.17,0,0,1-.75.36.83.83,0,0,1-.6.06c-.15-.06-.16-.24-.06-.56a2.85,2.85,0,0,1,.47-.77,1.37,1.37,0,0,1,.6-.49.24.24,0,0,1,.19,0,.23.23,0,0,1,.1.16.26.26,0,0,1-.09.18.37.37,0,0,1-.16.07.13.13,0,0,1-.12,0v0s0,0,0,0,0,0,0,0l-.08.08A2.81,2.81,0,0,0-53.22,13.85Z" transform="translate(97.87 0.46)" fill="#fff"/><path d="M-52,11.08a.08.08,0,0,1-.08.05l-.14,0a.24.24,0,0,1-.11-.08s0-.07,0-.1a.59.59,0,0,1,.25-.11c.63-.11,1.26-.2,1.87-.28a1.3,1.3,0,0,0,.27,0,.26.26,0,0,0,.15-.07.73.73,0,0,0,.11-.15l.18-.31,0-.07a9.3,9.3,0,0,1,1.06-1.56c.29-.27.42-.23.38.13a4.93,4.93,0,0,1-.71,1.71v0a.37.37,0,0,0-.09.17s0,0,.12,0h.14c.84,0,1.7-.08,2.59-.07.06,0,.09,0,.11,0a0,0,0,0,1,0,.07.19.19,0,0,1-.13,0,19.2,19.2,0,0,0-2.76.13h-.08l-.12,0s-.06.05-.1.1a21.25,21.25,0,0,1-1.32,1.82,11.79,11.79,0,0,1-1.15,1.28l0,0,0,0h0l0,0,0,.07c-.75,1.19-1.5,2.38-2.26,3.57.06,0,.09,0,.08.06a.19.19,0,0,1-.07.13c-.15.11-.25.14-.31.1s-.06-.14,0-.29l.52-.82Q-51.81,13.86-50,11a.43.43,0,0,1,0-.07.31.31,0,0,0,.06-.12s0,0-.12,0l-1.91.3Zm2.32-.3q-.18.29-.36.6c-.3.52-.62,1-1,1.55-.18.27-.17.29,0,.07a18,18,0,0,0,1.58-2.18l.08-.13s0,0,0,0h-.11l-.15,0A.23.23,0,0,0-49.66,10.78Zm.31-.53-.07.14s0,.06,0,0h.23a.13.13,0,0,0,.06-.05l.06-.09a7.46,7.46,0,0,0,.78-1.7A10.72,10.72,0,0,0-49.2,10a.86.86,0,0,1-.07.1A1,1,0,0,1-49.35,10.25Z" transform="translate(97.87 0.46)" fill="#fff"/><path d="M-61.3,10.67l-.08.36H-63l.53-2.29h1.6l-.08.36h-1.21l-.14.59h1.16l-.08.36h-1.17l-.14.62Z" transform="translate(97.87 0.46)" fill="#fff"/><path d="M-60.25,10.56l.74-1.2h.42L-60.16,11h-.36l-.29-1.67h.39Z" transform="translate(97.87 0.46)" fill="#fff"/><path d="M-57.53,10.3h-1.26v.06a.36.36,0,0,0,.1.27.42.42,0,0,0,.3.11.4.4,0,0,0,.24-.07A.49.49,0,0,0-58,10.5h.38a.86.86,0,0,1-.32.41.9.9,0,0,1-.51.15.7.7,0,0,1-.54-.21.73.73,0,0,1-.2-.55,1,1,0,0,1,.25-.69.87.87,0,0,1,.67-.29.77.77,0,0,1,.54.2.76.76,0,0,1,.2.53A1.07,1.07,0,0,1-57.53,10.3ZM-58.74,10h.87a.35.35,0,0,0-.1-.27.4.4,0,0,0-.3-.1.43.43,0,0,0-.29.1A.49.49,0,0,0-58.74,10Z" transform="translate(97.87 0.46)" fill="#fff"/><path d="M-56.61,9.36l0,.22a.6.6,0,0,1,.52-.26.5.5,0,0,1,.38.14.51.51,0,0,1,.14.38.85.85,0,0,1,0,.25l-.22.94h-.37l.23-1a1.25,1.25,0,0,0,0-.15.29.29,0,0,0-.07-.18.34.34,0,0,0-.22-.07.47.47,0,0,0-.48.41L-57,11h-.37L-57,9.36Z" transform="translate(97.87 0.46)" fill="#fff"/><path d="M-54.59,10.69l-.07.33-.18,0a.45.45,0,0,1-.3-.1.36.36,0,0,1-.11-.28.68.68,0,0,1,0-.19l.18-.81h-.25l.07-.3H-55l.1-.44h.38l-.1.44h.31l-.07.3h-.31l-.19.81s0,.09,0,.11,0,.12.15.12Z" transform="translate(97.87 0.46)" fill="#fff"/><path d="M-53.78,11.06a.62.62,0,0,1-.47-.15.5.5,0,0,1-.15-.38v0H-54s0,0,0,0,.1.23.3.23.32-.07.32-.2a.16.16,0,0,0-.07-.14l-.18-.09-.2-.09a.36.36,0,0,1-.18-.14.41.41,0,0,1-.08-.25A.48.48,0,0,1-54,9.47a.69.69,0,0,1,.48-.15.64.64,0,0,1,.44.14.49.49,0,0,1,.15.36v0h-.36s0,0,0,0a.19.19,0,0,0-.08-.15.33.33,0,0,0-.19,0,.3.3,0,0,0-.2,0,.16.16,0,0,0-.07.14.13.13,0,0,0,.07.12,1,1,0,0,0,.18.08l.21.09a.43.43,0,0,1,.18.15.5.5,0,0,1,.07.26.44.44,0,0,1-.21.4A.8.8,0,0,1-53.78,11.06Z" transform="translate(97.87 0.46)" fill="#fff"/><rect x="31.92" y="20.43" width="7.55" height="2.35" rx="1.17" fill="#fff"/><rect y="21.6" width="30.3" fill="#fff"/><rect x="40.52" y="21.6" width="30.3" fill="#fff"/><path d="M-63.78,21.43h.35l0,0v.09l0,0h-.45s-.08,0-.08,0,0,0,0-.06v-.64a0,0,0,0,0,0,0s0,0,.08,0,.09,0,.09,0a.07.07,0,0,1,0,.05Z" transform="translate(97.87 0.46)"/><path d="M-62.86,20.79a.41.41,0,0,1,.28.11.4.4,0,0,1,.12.29.44.44,0,0,1-.11.29.38.38,0,0,1-.28.12.38.38,0,0,1-.28-.12.38.38,0,0,1-.12-.28.47.47,0,0,1,0-.17.57.57,0,0,1,.08-.13.57.57,0,0,1,.13-.08A.32.32,0,0,1-62.86,20.79Zm-.19.4a.21.21,0,0,0,.06.16.2.2,0,0,0,.14.06.22.22,0,0,0,.14-.06.2.2,0,0,0,.06-.15.19.19,0,0,0-.07-.16.18.18,0,0,0-.13-.06A.18.18,0,0,0-63,21,.2.2,0,0,0-63,21.19Z" transform="translate(97.87 0.46)"/><path d="M-61.87,21.11h.19s.06,0,.07,0a.13.13,0,0,1,0,.06v.24a.13.13,0,0,1,0,.07.37.37,0,0,1-.27.09.38.38,0,0,1-.28-.12.41.41,0,0,1-.12-.3.36.36,0,0,1,.12-.28.4.4,0,0,1,.29-.12.4.4,0,0,1,.24.09.05.05,0,0,1,0,.05l0,.06s-.05.05-.08.05l-.06,0a.2.2,0,0,0-.11,0A.24.24,0,0,0-62,21a.2.2,0,0,0-.06.15.19.19,0,0,0,.07.16.17.17,0,0,0,.14.07l.11,0v-.12h-.13a0,0,0,0,1,0,0s0,0,0,0,0,0,0-.05,0,0,0,0Z" transform="translate(97.87 0.46)"/><path d="M-61.4,20.89v0a0,0,0,0,1,0,0s0,0,.08,0,.08,0,.09,0a.43.43,0,0,1,0,.05v.64l0,0s0,0-.08,0-.08,0-.09,0v-.66Z" transform="translate(97.87 0.46)"/><path d="M-60.51,20.83l0,0h.1s0,0,0,0l0,0v.69a0,0,0,0,1,0,0s0,0-.08,0h-.06l0,0-.32-.42v.39a0,0,0,0,1,0,0s0,0-.08,0-.08,0-.09,0v-.67s0-.05,0-.06l0,0h.11s0,0,0,0l0,0,.3.41v-.37A.35.35,0,0,1-60.51,20.83Z" transform="translate(97.87 0.46)"/></svg>