<svg id="Layer_1" data-name="Layer 1" xmlns="http://www.w3.org/2000/svg" width="22.2mm" height="8.76mm" viewBox="0 0 62.92 24.85"><g opacity="0.04"><path d="M0,12.28v0A7,7,0,0,1,.56,9.49,7.73,7.73,0,0,1,2.15,7.13a6.94,6.94,0,0,1,3-1.84A7.42,7.42,0,0,1,8.64,5a7.59,7.59,0,0,1,2.61,1,7.05,7.05,0,0,1,2.08,1.88c.07.1.15.19.21.29l.2.29A7.06,7.06,0,0,1,14.84,12a7.42,7.42,0,0,1-.78,3.67A7.33,7.33,0,0,1,13,17.28a7.3,7.3,0,0,1-1.47,1.19,8.06,8.06,0,0,1-1.72.84,6.77,6.77,0,0,1-1.89.39,1,1,0,0,1-.24,0H7.41a1.38,1.38,0,0,1-1-.42,1.4,1.4,0,0,1-.4-1,1.36,1.36,0,0,1,.4-1,1.41,1.41,0,0,1,1-.41H7.5a4.61,4.61,0,0,0,1.68-.37,4.05,4.05,0,0,0,1.29-.82,4.6,4.6,0,0,0,1-1.2c-.06.12-.12.24-.19.36l-.2.36c.07-.14.15-.28.23-.42s.15-.28.23-.44a3.73,3.73,0,0,0,.2-.56H1.48a1.44,1.44,0,0,1-1-.44,1.41,1.41,0,0,1-.45-1ZM8.09,7.79a4.4,4.4,0,0,0-1.84.11,4.78,4.78,0,0,0-1.67.84,4.54,4.54,0,0,0-1.19,1.42,7.18,7.18,0,0,0-.33.74h8.68A4.87,4.87,0,0,0,11,9.49a4.79,4.79,0,0,0-1.15-1A4.65,4.65,0,0,0,8.09,7.79Z" transform="translate(0 -0.05)"/><path d="M26.91,17.3a1.42,1.42,0,0,1,.42,1,1.43,1.43,0,0,1-1.42,1.42H24.2a7.26,7.26,0,0,1-2.87-.59A7.9,7.9,0,0,1,19,17.54a7.81,7.81,0,0,1-1.59-2.35,7.12,7.12,0,0,1,0-5.7A7.73,7.73,0,0,1,19,7.13,7.6,7.6,0,0,1,21.32,5.5a6.9,6.9,0,0,1,2.87-.59H25.9a1.35,1.35,0,0,1,1,.41,1.38,1.38,0,0,1,.42,1,1.47,1.47,0,0,1-.42,1,1.35,1.35,0,0,1-1,.43H24.19a4.26,4.26,0,0,0-1.76.35,5,5,0,0,0-1.45,1,4.7,4.7,0,0,0-1,1.45,4.39,4.39,0,0,0-.36,1.75A4.53,4.53,0,0,0,20,14.07a4.66,4.66,0,0,0,1,1.44,4.79,4.79,0,0,0,1.45,1,4.11,4.11,0,0,0,1.76.36H25.9A1.39,1.39,0,0,1,26.91,17.3Z" transform="translate(0 -0.05)"/><circle cx="3.36" cy="17.42" r="1.52"/></g><text transform="translate(29.98 15.9)" opacity="0.04" font-size="19.89" font-family="CreattionDemo, Creattion Demo" style="isolation:isolate">connect</text><g opacity="0.04"><path d="M33.14,8.63,33,9.32H29.89l1-4.39H34l-.14.7H31.5l-.27,1.12h2.24l-.16.69H31.07L30.8,8.63Z" transform="translate(0 -0.05)"/><path d="M35.16,8.42l1.41-2.31h.81l-2,3.21h-.7l-.56-3.21h.75Z" transform="translate(0 -0.05)"/><path d="M40.38,7.93H38V8a.69.69,0,0,0,.2.53.78.78,0,0,0,.57.2.93.93,0,0,0,.46-.12.81.81,0,0,0,.33-.33h.75a1.7,1.7,0,0,1-.6.78,1.76,1.76,0,0,1-1,.31,1.36,1.36,0,0,1-1-.41,1.5,1.5,0,0,1-.38-1.07,2,2,0,0,1,.49-1.32A1.66,1.66,0,0,1,39,6a1.35,1.35,0,0,1,1.38,1.4A1.67,1.67,0,0,1,40.38,7.93Zm-2.31-.54h1.66a.68.68,0,0,0-.2-.52A.79.79,0,0,0,39,6.68a.91.91,0,0,0-.58.2A1,1,0,0,0,38.07,7.39Z" transform="translate(0 -0.05)"/><path d="M42.15,6.11l-.09.42a1.19,1.19,0,0,1,1-.5,1.08,1.08,0,0,1,.72.27,1.06,1.06,0,0,1,.27.74,2.53,2.53,0,0,1-.07.48l-.42,1.8h-.71l.43-1.91a1.22,1.22,0,0,0,0-.27.52.52,0,0,0-.14-.35.61.61,0,0,0-.41-.13.9.9,0,0,0-.93.79l-.41,1.87h-.71l.71-3.21Z" transform="translate(0 -0.05)"/><path d="M46,8.67l-.14.64h-.34A.87.87,0,0,1,45,9.13a.73.73,0,0,1-.21-.55,2.29,2.29,0,0,1,0-.37l.36-1.54h-.46l.14-.59h.49l.19-.83h.73L46,6.08h.6l-.14.59h-.6l-.35,1.55v.22c0,.15.09.23.28.23Z" transform="translate(0 -0.05)"/><path d="M47.6,9.4a1.25,1.25,0,0,1-.93-.29,1,1,0,0,1-.28-.74V8.29h.68v.08c0,.29.19.44.56.44s.63-.13.63-.39a.31.31,0,0,0-.14-.26A2.21,2.21,0,0,0,47.78,8l-.4-.17A.77.77,0,0,1,47,7.54a.82.82,0,0,1-.14-.48.93.93,0,0,1,.34-.74A1.39,1.39,0,0,1,48.15,6a1.33,1.33,0,0,1,.86.28A1,1,0,0,1,49.3,7v.1h-.63V7a.35.35,0,0,0-.14-.28.56.56,0,0,0-.37-.11.65.65,0,0,0-.39.1.31.31,0,0,0-.13.27.24.24,0,0,0,.14.23,2.11,2.11,0,0,0,.34.16l.4.17a.87.87,0,0,1,.35.28,1,1,0,0,1,.13.5.94.94,0,0,1-.39.79A1.73,1.73,0,0,1,47.6,9.4Z" transform="translate(0 -0.05)"/></g><path d="M15.13,13.05h0a3.78,3.78,0,0,1,.29-1.44,4.17,4.17,0,0,1,.82-1.21,3.56,3.56,0,0,1,1.55-1,4,4,0,0,1,1.81-.15A4.15,4.15,0,0,1,21,9.76a3.82,3.82,0,0,1,1.08,1l.11.15.11.15a3.86,3.86,0,0,1,.57,1.85,4,4,0,0,1-.41,1.9,3.9,3.9,0,0,1-.56.83,3.85,3.85,0,0,1-.75.64,4.87,4.87,0,0,1-.89.43,3.42,3.42,0,0,1-1,.2H19a.69.69,0,0,1-.52-.21.78.78,0,0,1-.21-.52.74.74,0,0,1,.21-.52.69.69,0,0,1,.52-.21h0a2.57,2.57,0,0,0,.87-.2,2.14,2.14,0,0,0,.67-.43,2.48,2.48,0,0,0,.5-.62,1.62,1.62,0,0,0-.1.18l-.11.19.12-.22.12-.22a1.94,1.94,0,0,0,.13-.3H15.83a.8.8,0,0,1-.53-.23.72.72,0,0,1-.23-.53Zm4.2-2.33a2.12,2.12,0,0,0-1,.06,2.31,2.31,0,0,0-1.48,1.16,3.29,3.29,0,0,0-.17.39h4.5a2.27,2.27,0,0,0-.38-.72,2.62,2.62,0,0,0-.6-.55A2.26,2.26,0,0,0,19.33,10.72Z" transform="translate(0 -0.05)"/><path d="M29.09,15.66a.66.66,0,0,1,.22.53.73.73,0,0,1-.73.73h-.87a3.66,3.66,0,0,1-1.5-.3A4.22,4.22,0,0,1,25,15.8a4.43,4.43,0,0,1-.84-1.22,3.92,3.92,0,0,1-.31-1.51,3.82,3.82,0,0,1,.31-1.49A4.28,4.28,0,0,1,25,10.36a4.1,4.1,0,0,1,1.2-.87,3.83,3.83,0,0,1,1.5-.3h.89a.69.69,0,0,1,.51.21.67.67,0,0,1,.22.53.75.75,0,0,1-.73.76h-.87a2.07,2.07,0,0,0-.92.18,2.52,2.52,0,0,0-.75.5,2.36,2.36,0,0,0-.7,1.66,2.4,2.4,0,0,0,.19.92,2.27,2.27,0,0,0,.51.75,2.76,2.76,0,0,0,.75.51,2.45,2.45,0,0,0,.92.27h.89A.64.64,0,0,1,29.09,15.66Z" transform="translate(0 -0.05)"/><circle cx="16.88" cy="15.69" r="0.79" fill="#a6ea00"/><path d="M31,14.33a1.86,1.86,0,0,0-.24.56c0,.09.07.11.23.07a4.33,4.33,0,0,0,.54-.21,5.07,5.07,0,0,0,.57-.29,2.61,2.61,0,0,0,.28-.17s.09,0,.12,0,0,0,0,.05a.22.22,0,0,1,0,.08,4.45,4.45,0,0,1-.51.33,5.17,5.17,0,0,1-.75.36.89.89,0,0,1-.6.06c-.15-.06-.16-.24,0-.56a2.86,2.86,0,0,1,.46-.77,1.36,1.36,0,0,1,.6-.49.21.21,0,0,1,.19,0,.27.27,0,0,1,.1.16.31.31,0,0,1-.09.18.33.33,0,0,1-.16.07.11.11,0,0,1-.11,0h0l-.08.08A3.21,3.21,0,0,0,31,14.33Z" transform="translate(0 -0.05)"/><path d="M33.24,15a.7.7,0,0,1-.66.26q-.33-.09-.3-.54a2,2,0,0,1,.63-1.17,1,1,0,0,1,.38-.3.19.19,0,0,1,.18,0v.19a.52.52,0,0,1-.17.13h-.11a2.87,2.87,0,0,0-.58.92.56.56,0,0,0,0,.47c.06.08.2.09.35,0a1.25,1.25,0,0,0,.23-.23,3.62,3.62,0,0,0,.2-.33h0a.78.78,0,0,1-.16-.24.32.32,0,0,1,0-.27s.07-.07.15-.07a.45.45,0,0,1,.21.12.52.52,0,0,1,.11.32.23.23,0,0,0,.1.21.37.37,0,0,0,.21,0,.42.42,0,0,0,.19-.09h.09s0,.05,0,.09a.31.31,0,0,1-.15.12.73.73,0,0,1-.3.06l-.14-.06h-.07l-.06.07a1.48,1.48,0,0,0-.13.21Z" transform="translate(0 -0.05)"/><path d="M33.8,15a5.18,5.18,0,0,1,.29-.6l.4-.67.18-.3a.14.14,0,0,1,0-.09.11.11,0,0,1,0-.08c.09-.09.15-.15.2-.16H35a.13.13,0,0,1,.09.1h0a.14.14,0,0,1,0,.09q-.19.3-.42.69l-.41.7q.2-.18.39-.33c.18-.15.36-.28.55-.41a.82.82,0,0,1,.38-.2c.12,0,.19,0,.21.14a.81.81,0,0,1,0,.31v.23a.12.12,0,0,0,.11.09h0a.86.86,0,0,0,.32-.15h.09s0,0,0,.07a.13.13,0,0,1-.06.07c-.3.2-.5.23-.6.11a.77.77,0,0,1-.07-.61.78.78,0,0,0-.32.18c-.14.11-.3.24-.46.39a3.88,3.88,0,0,1-.42.35,2,2,0,0,1-.33.24.15.15,0,0,1-.16,0A.21.21,0,0,1,33.8,15Z" transform="translate(0 -0.05)"/><path d="M35.79,15a5.65,5.65,0,0,1,.31-.6c.13-.23.26-.46.39-.67l.18-.3a.14.14,0,0,1,0-.09.11.11,0,0,1,0-.08.78.78,0,0,1,.2-.16H37a.13.13,0,0,1,.09.1h0v.09q-.19.3-.42.69l-.41.7a4.12,4.12,0,0,1,.4-.33,5.47,5.47,0,0,1,.54-.41.82.82,0,0,1,.38-.2c.12,0,.19,0,.21.14a.81.81,0,0,1,0,.31.89.89,0,0,0,0,.23c0,.06,0,.09.1.09a1,1,0,0,0,.32-.15h.09s0,0,0,.07v.07c-.31.2-.51.23-.61.11a.77.77,0,0,1-.07-.61.78.78,0,0,0-.32.18c-.14.11-.3.24-.46.39a5.19,5.19,0,0,1-.41.35,2.62,2.62,0,0,1-.34.24.17.17,0,0,1-.17,0S35.77,15.06,35.79,15Z" transform="translate(0 -0.05)"/><path d="M39.43,13.32c.19,0,.27.12.23.24a.73.73,0,0,1-.29.38,1.54,1.54,0,0,1-.49.3.39.39,0,0,1-.37,0l-.18.27a.5.5,0,0,0-.12.29c0,.13.09.18.26.16a2.27,2.27,0,0,0,.62-.16l.67-.29a2.32,2.32,0,0,0,.38-.21.2.2,0,0,1,.11,0v0c0,.05,0,.08-.13.14l-.52.3a5.07,5.07,0,0,1-.75.34,1.63,1.63,0,0,1-.69.1q-.3,0-.27-.42a1.2,1.2,0,0,1,.28-.59,2.84,2.84,0,0,1,.6-.6A1,1,0,0,1,39.43,13.32Zm-.1.28-.15.08-.23.16a1.16,1.16,0,0,0-.21.16.23.23,0,0,0-.11.11h.09a2.37,2.37,0,0,0,.35-.19,1.65,1.65,0,0,0,.32-.26v-.07Z" transform="translate(0 -0.05)"/><path d="M40.4,14.33a1.88,1.88,0,0,0-.25.56c0,.09.08.11.23.07a5.2,5.2,0,0,0,.55-.21,4.25,4.25,0,0,0,.56-.29l.29-.17s.09,0,.12,0,0,0,0,.05a.11.11,0,0,1,0,.08,4.32,4.32,0,0,1-.5.33,5.17,5.17,0,0,1-.75.36.91.91,0,0,1-.61.06c-.14-.06-.16-.24,0-.56a2.86,2.86,0,0,1,.46-.77,1.36,1.36,0,0,1,.6-.49.23.23,0,0,1,.2,0,.34.34,0,0,1,.1.16.32.32,0,0,1-.1.18.26.26,0,0,1-.15.07.13.13,0,0,1-.12,0h0l-.09.08A2.84,2.84,0,0,0,40.4,14.33Z" transform="translate(0 -0.05)"/><path d="M41.68,11.56s0,.06-.07,0h-.15a.21.21,0,0,1-.11-.08.09.09,0,0,1,0-.1.8.8,0,0,1,.25-.11c.64-.11,1.26-.19,1.88-.27h.27a.27.27,0,0,0,.14-.07l.11-.15c.06-.1.12-.21.19-.31a.08.08,0,0,1,0-.07,8.2,8.2,0,0,1,1.05-1.56c.29-.27.41-.23.37.13a4.83,4.83,0,0,1-.7,1.71h0a.46.46,0,0,0-.09.17h.27c.84,0,1.7-.08,2.58-.07h.12a.08.08,0,0,1,0,.07h-.12a18.22,18.22,0,0,0-2.76.13H44.7a.18.18,0,0,0-.09.1,20.77,20.77,0,0,1-1.31,1.81,14,14,0,0,1-1.15,1.28h0l0,.07c-.74,1.19-1.5,2.37-2.25,3.56.06,0,.08,0,.08.06a.18.18,0,0,1-.08.13c-.15.11-.25.14-.31.1s0-.14,0-.29l.53-.82q1.83-2.84,3.61-5.75a.08.08,0,0,1,0-.07c0-.06.06-.09,0-.11s0,0-.12,0l-1.91.29Zm2.32-.3-.36.6c-.3.52-.62,1-1,1.55-.17.27-.16.29,0,.07a20.19,20.19,0,0,0,1.58-2.18.52.52,0,0,0,.06-.13H44a.22.22,0,0,0-.08.09Zm.31-.52a.35.35,0,0,0-.06.14h.23a0,0,0,0,0,0-.05l.07-.09A7.41,7.41,0,0,0,45.32,9a12.71,12.71,0,0,0-.92,1.45l-.06.1Z" transform="translate(0 -0.05)"/><path d="M32.33,11.15l-.08.36H30.7l.53-2.28h1.6l-.13.36H31.48l-.14.59H32.5l-.08.36H31.26l-.14.61Z" transform="translate(0 -0.05)"/><path d="M33.39,11.05l.72-1.2h.42l-1.06,1.63h-.36l-.29-1.66h.39Z" transform="translate(0 -0.05)"/><path d="M36.09,10.79H34.84v.06a.36.36,0,0,0,.41.37.34.34,0,0,0,.24-.07.45.45,0,0,0,.2-.16h.39a.83.83,0,0,1-.32.4.86.86,0,0,1-.52.15.7.7,0,0,1-.54-.21.8.8,0,0,1-.2-.54,1.05,1.05,0,0,1,.19-.69.87.87,0,0,1,.67-.29.69.69,0,0,1,.73.73A1,1,0,0,1,36.09,10.79Zm-1.2-.3h.87a.33.33,0,0,0-.07-.26.38.38,0,0,0-.29-.1.42.42,0,0,0-.3.1A.49.49,0,0,0,34.89,10.49Z" transform="translate(0 -0.05)"/><path d="M37,9.85v.22a.61.61,0,0,1,.53-.26.47.47,0,0,1,.37.14.49.49,0,0,1,.14.38,1,1,0,0,1,0,.25l-.22.93h-.37l.23-1v-.15a.23.23,0,0,0-.07-.18.33.33,0,0,0-.21-.07.45.45,0,0,0-.48.41l-.24,1h-.37l.37-1.63Z" transform="translate(0 -0.05)"/><path d="M39,11.17,39,11.5h-.17a.41.41,0,0,1-.3-.1.32.32,0,0,1-.11-.27.6.6,0,0,1,0-.19l.19-.81h-.26l.07-.3h.31l.1-.44h.37l-.1.44h.31l-.07.3H39l-.19.81a.2.2,0,0,0,0,.11c0,.08,0,.11.14.11Z" transform="translate(0 -0.05)"/><path d="M39.84,11.54a.62.62,0,0,1-.48-.15.55.55,0,0,1-.14-.37h.35c0,.14.1.22.29.22s.33-.07.33-.19a.16.16,0,0,0-.08-.14l-.17-.09-.21-.09a.49.49,0,0,1-.18-.14.45.45,0,0,1-.07-.25.51.51,0,0,1,.2-.38.71.71,0,0,1,.48-.15.67.67,0,0,1,.45.14.48.48,0,0,1,.15.36h-.35a.17.17,0,0,0-.07-.15.31.31,0,0,0-.19,0,.26.26,0,0,0-.21,0,.21.21,0,0,0-.07.14.2.2,0,0,0,.08.12l.18.08.2.09a.34.34,0,0,1,.18.15.38.38,0,0,1,.07.26.42.42,0,0,1-.2.39A.8.8,0,0,1,39.84,11.54Z" transform="translate(0 -0.05)"/></svg>