<svg id="Layer_1" data-name="Layer 1" xmlns="http://www.w3.org/2000/svg" width="0.5cm" height="0.27cm" viewBox="0 0 14.22 7.73"><path d="M-61.64,13.76v0a3.48,3.48,0,0,1,.29-1.43,4.07,4.07,0,0,1,.82-1.23,3.63,3.63,0,0,1,1.55-1A3.89,3.89,0,0,1-57.16,10a3.74,3.74,0,0,1,1.36.51,3.6,3.6,0,0,1,1.08,1,.58.58,0,0,1,.11.15l.11.15a3.76,3.76,0,0,1,.57,1.85,3.91,3.91,0,0,1-.41,1.9,3.9,3.9,0,0,1-.56.83,3.53,3.53,0,0,1-.75.64,4.1,4.1,0,0,1-.89.44,3.71,3.71,0,0,1-1,.2l-.12,0h-.14a.71.71,0,0,1-.52-.22.72.72,0,0,1-.21-.53.7.7,0,0,1,.21-.52.7.7,0,0,1,.52-.21h0a2.64,2.64,0,0,0,.87-.19,2.48,2.48,0,0,0,.67-.43,2.72,2.72,0,0,0,.5-.63,1.74,1.74,0,0,0-.1.19,1.74,1.74,0,0,1-.11.18l.12-.21.12-.23a1.51,1.51,0,0,0,.13-.3h-5.34a.78.78,0,0,1-.53-.23.7.7,0,0,1-.23-.53Zm4.21-2.33a2.07,2.07,0,0,0-1,.05,2.39,2.39,0,0,0-.87.44,2.28,2.28,0,0,0-.62.73A3.09,3.09,0,0,0-60,13h4.51a2.38,2.38,0,0,0-.38-.72,2.62,2.62,0,0,0-.6-.55A2.28,2.28,0,0,0-57.43,11.43Z" transform="translate(61.64 -9.92)" fill="#fff"/><path d="M-47.64,16.37a.74.74,0,0,1,.21.53.72.72,0,0,1-.21.53.75.75,0,0,1-.53.22h-.89a3.55,3.55,0,0,1-1.49-.31,3.87,3.87,0,0,1-1.23-.83,4,4,0,0,1-.84-1.22,3.8,3.8,0,0,1-.3-1.51,3.78,3.78,0,0,1,.3-1.49,4.07,4.07,0,0,1,.84-1.23,4,4,0,0,1,1.23-.82,3.55,3.55,0,0,1,1.49-.31h.89a.71.71,0,0,1,.53.22.72.72,0,0,1,.21.53.76.76,0,0,1-.21.53.71.71,0,0,1-.53.22h-.89a2.2,2.2,0,0,0-.92.19,2.52,2.52,0,0,0-.75.5,2.49,2.49,0,0,0-.51.75,2.34,2.34,0,0,0-.18.91,2.41,2.41,0,0,0,.18.93,2.62,2.62,0,0,0,.51.75A2.52,2.52,0,0,0-50,16a2.2,2.2,0,0,0,.92.19h.89A.71.71,0,0,1-47.64,16.37Z" transform="translate(61.64 -9.92)" fill="#fff"/><circle cx="1.75" cy="6.53" r="0.79" fill="#a6ea00"/></svg>