<?xml version="1.0" encoding="utf-8"?>
<!-- Generator: Adobe Illustrator 24.3.0, SVG Export Plug-In . SVG Version: 6.00 Build 0)  -->
<svg version="1.1" id="Layer_1" xmlns="http://www.w3.org/2000/svg" xmlns:xlink="http://www.w3.org/1999/xlink" x="0px" y="0px"
	 viewBox="0 0 408.8 408.8" style="enable-background:new 0 0 408.8 408.8;" xml:space="preserve">
<style type="text/css">
	.st0{fill:#EA4E00;}
</style>
<path class="st0" d="M0,192.4c1-7.7,1.8-15.5,3.1-23.2c8.3-47.3,30.8-86.8,66.7-118.6C100.4,23.7,136,7.3,176.3,2
	c50.7-6.7,97.5,3.9,140.4,31.8c22.9,14.9,42.6,34.4,57.7,57.2c0.6,0.8,1.2,1.6,2.4,3.3v-4.8c0-12.6,0-25.3,0-37.9
	c0-10.1,6.7-17.2,16-17.2c9.3,0,15.9,7.1,15.9,17.3c0,15,0.1,30.1,0,45.1c-0.3,29.3-22.3,51.4-51.6,51.7c-15.7,0.2-31.4,0.1-47.1,0
	c-10,0-17.1-6.8-17-16.1c0.1-9.1,7.1-15.7,17-15.7c14-0.1,27.9,0,42.8,0c-2.4-3.7-4.2-7-6.5-10c-36.9-50.7-86.8-76.1-149.5-74.3
	C156,33.4,120.1,48.6,89.6,76.1c-28,25.1-46.4,56-53.8,92.9c-10,49.6-0.5,95.5,29.4,136.5c25.9,35.6,60.7,58.2,103.9,67.6
	c15.1,3.3,30.6,4.4,46,3.4c3.3-0.3,6.6-0.2,9.9,0.4c7.6,1.7,12.8,8.7,12.2,16.4c-0.6,7.7-6.7,13.9-14.4,14.7l-7.9,0.8h-22.4
	c-5.4-0.6-10.8-1.2-16.2-2c-40.3-5.7-75.9-21.8-106.4-48.7c-35.9-31.7-58.4-71.2-66.7-118.5C1.8,231.8,1,224.1,0,216.3V192.4z"/>
<path class="st0" d="M220.4,140.7c0,20.6-0.1,41.2,0,61.9c0.2,5.4-2,10.6-5.8,14.3c-20.3,20.3-40.7,40.6-61,60.9
	c-9.8,9.7-24.5,6.4-27.8-6.3c-1.6-6.2,0.4-11.5,4.8-16l19.7-19.8c11.6-11.6,23.1-23.2,34.8-34.7c2.3-2,3.5-4.9,3.4-7.9
	c-0.1-38.3-0.1-76.6-0.1-114.9c0-8.2,3.9-14.2,10.6-16.6c10.6-3.7,21.2,3.9,21.3,15.6c0.1,20.2,0,40.4,0,60.7L220.4,140.7z"/>
<path class="st0" d="M282.6,392.3c-7.2-0.3-13.4-5.2-15.3-12.2c-1.9-6.8,1-14,7.1-17.5c5.3-3,10.8-5.8,16.3-8.2
	c7.7-3.4,16.6-0.1,20.4,7.4c3.9,7.3,1.3,16.3-5.8,20.6c-5.3,3.2-11,5.8-16.7,8.5C286.8,391.7,284.6,391.9,282.6,392.3z"/>
<path class="st0" d="M369.5,257.3c1.5-5.1,3.1-13,6.1-20.2c2.9-7,11.4-9.8,18.6-7.5c7.3,2.3,12,9.4,10.7,17
	c-1.2,6.7-2.9,13.2-5.1,19.6c-2.6,7.4-10.3,11-18.5,9.3C374.5,274,369.4,267.4,369.5,257.3z"/>
<path class="st0" d="M356.6,300.9c12.1,0,20,13.3,13.6,23.6c-3.8,5.9-8.3,11.4-13.2,16.4c-5.6,5.8-15,5.5-21,0.2
	c-6.1-5.3-7.3-14.3-2.5-20.9c3.7-5,7.7-9.8,11.8-14.5C348.1,302.4,352.3,300.6,356.6,300.9z"/>
</svg>
