<svg id="Layer_1" data-name="Layer 1" xmlns="http://www.w3.org/2000/svg" width="112.61mm" height="112.62mm" viewBox="0 0 319.22 319.23"><path d="M-294.54,153.65c88.29.11,159.62,71.52,159.52,159.69S-206.58,473-294.71,472.88-454.35,401.3-454.24,313.17-382.68,153.53-294.54,153.65Zm-.2,183.56a24,24,0,0,0,24.05-23.93,23.94,23.94,0,0,0-23.64-24,23.94,23.94,0,0,0-24.24,23.73A24,24,0,0,0-294.74,337.21Zm-55.87-23.77a23.79,23.79,0,0,0-23.77-24.12,24,24,0,0,0-24.07,23.94,24,24,0,0,0,23.7,23.94A23.8,23.8,0,0,0-350.61,313.44Zm135.8-24.12a23.79,23.79,0,0,0-23.83,24.07,23.81,23.81,0,0,0,23.7,23.82,24.05,24.05,0,0,0,24.14-23.89A24,24,0,0,0-214.81,289.32Z" transform="translate(454.24 -153.65)" fill="#fff"/></svg>