<svg id="Layer_1" data-name="Layer 1" xmlns="http://www.w3.org/2000/svg" width="11.26cm" height="11.26cm" viewBox="0 0 319.21 319.22"><path d="M-431.7-182.57c88.29.11,159.62,71.52,159.52,159.68s-71.56,159.66-159.69,159.54S-591.5,65.07-591.39-23.06-519.83-182.69-431.7-182.57ZM-431.9,1a24,24,0,0,0,24-23.93,23.93,23.93,0,0,0-23.64-24,23.92,23.92,0,0,0-24.23,23.63v.09A24,24,0,0,0-431.93,1Zm-55.86-23.77A23.79,23.79,0,0,0-511.22-46.9h-.31A24,24,0,0,0-535.6-23h0A24,24,0,0,0-511.9,1a23.78,23.78,0,0,0,24.13-23.45c0-.1,0-.2,0-.31ZM-352-46.9A23.77,23.77,0,0,0-375.8-23.16v.32A23.81,23.81,0,0,0-352.1,1,24,24,0,0,0-328-22.91a24,24,0,0,0-24-24Z" transform="translate(591.39 182.57)" fill="#f4e200"/></svg>