<svg id="Layer_1" data-name="Layer 1" xmlns="http://www.w3.org/2000/svg" width="14.16cm" height="14.16cm" viewBox="0 0 401.41 401.28"><path d="M405.12,217.7c-.46,3.34-.84,6.71-1.41,10-1.75,10.14-10.85,17.33-20.66,16.4-10.65-1-18.29-9.37-18-20,.16-6.66.92-13.3.92-19.95A161.12,161.12,0,0,0,240.08,46.87C152.58,27,64.85,83.39,46.47,171.24A161.49,161.49,0,0,0,179.38,364c39.11,6.19,75.8-1.47,109.72-22,4.58-2.78,9.27-4.86,14.74-4.09a19.42,19.42,0,0,1,16.77,15.35c1.8,8.27-1.49,16.14-9,20.86C294.88,384.7,277,393,257.76,397.72c-12.11,3-24.59,4.47-36.91,6.64-1,.18-2,.44-3,.66H190.41a15.18,15.18,0,0,0-2.59-.67,197.79,197.79,0,0,1-49.95-10.72C44.81,361.13-11.25,264,7.23,167.3A200.86,200.86,0,0,1,239.48,6.75C322,21,388,87,402,169.42c1.22,7.18,2.08,14.42,3.1,21.63Z" transform="translate(-3.72 -3.74)" fill="#fff"/><path d="M204.13,176.87c13.59-13.54,26.56-26.41,39.45-39.36,3.72-3.74,7.92-6.39,13.27-6.8a19.6,19.6,0,0,1,19.52,11.06,19.4,19.4,0,0,1-4,22.41c-12.19,12.38-24.52,24.61-36.84,36.86a31.17,31.17,0,0,1-3.7,2.67c1.64,1.77,2.57,2.82,3.55,3.81,12.27,12.3,24.65,24.49,36.78,36.92,11.11,11.37,6.24,29.41-8.86,33.13-7.46,1.83-13.87-.39-19.28-5.82q-18.11-18.18-36.28-36.3c-1-1-2.05-1.95-3.24-3.08-1.17,1.11-2.22,2-3.21,3C189,247.69,176.78,260,164.45,272.24c-5.57,5.52-12.31,7.28-19.82,5a18.51,18.51,0,0,1-13.39-14.51c-1.63-7.34.75-13.58,6.06-18.86,12-12,24-24,36-36,1-1,2.2-1.84,3.65-3-1.35-1.43-2.27-2.46-3.24-3.44-12.37-12.38-24.79-24.71-37.1-37.16a19.31,19.31,0,0,1-4.17-22,19.64,19.64,0,0,1,19.26-11.51c5.34.35,9.66,2.8,13.4,6.55,12,12,24,24,36,36C202.14,174.33,203,175.5,204.13,176.87Z" transform="translate(-3.72 -3.74)" fill="#fff"/></svg>