<svg id="Layer_1" data-name="Layer 1" xmlns="http://www.w3.org/2000/svg" width="12.42cm" height="12.4cm" viewBox="0 0 352.19 351.45"><path d="M-115.6-339.1c96.61.08,176,79.45,175.74,175.77-.22,97.85-79.38,176-178,175.68C-213.19,12.06-292.18-67.46-292-163A176.13,176.13,0,0,1-115.6-339.1ZM-116-140.57c1.06,1,2,1.79,2.86,2.65l25.18,25.14c5.83,5.82,11.59,11.72,17.53,17.43,4.49,4.3,9.89,5.74,15.91,3.86a15.25,15.25,0,0,0,11-12.15c1.28-6.17-1.08-11.17-5.44-15.5q-20.74-20.58-41.37-41.27c-.94-.94-1.83-1.92-3.12-3.29,3.7-3.53,7.19-6.73,10.55-10.06q17.4-17.3,34.72-34.68c4.59-4.63,6.21-10.19,4.18-16.48a15.22,15.22,0,0,0-12-10.71c-6-1.28-11,.76-15.29,5Q-92-209.79-112.86-189c-1,1-2,1.84-3.09,2.91-1.16-1.09-2.16-2-3.11-2.94q-20.7-20.62-41.35-41.29c-4.36-4.37-9.42-6.59-15.58-5.25a15.23,15.23,0,0,0-12,11.09c-1.87,6.2-.18,11.61,4.31,16.11q21,21.09,42.13,42.09c.94.94,1.83,1.92,3.39,3.55a32.09,32.09,0,0,0-3.63,2.67q-20.58,20.46-41.1,41c-5.5,5.52-6.88,12.45-3.88,18.8C-181.94-90-168.9-88-160.43-96.41c13.86-13.69,27.59-27.5,41.38-41.25C-118.09-138.61-117.09-139.51-116-140.57Z" transform="translate(292.05 339.1)" fill="red"/></svg>